%TF.GenerationSoftware,KiCad,Pcbnew,(6.0.8)*%
%TF.CreationDate,2023-04-11T18:02:56+03:00*%
%TF.ProjectId,ITR-2,4954522d-322e-46b6-9963-61645f706362,rev?*%
%TF.SameCoordinates,Original*%
%TF.FileFunction,Legend,Bot*%
%TF.FilePolarity,Positive*%
%FSLAX46Y46*%
G04 Gerber Fmt 4.6, Leading zero omitted, Abs format (unit mm)*
G04 Created by KiCad (PCBNEW (6.0.8)) date 2023-04-11 18:02:56*
%MOMM*%
%LPD*%
G01*
G04 APERTURE LIST*
%ADD10C,0.150000*%
G04 APERTURE END LIST*
D10*
%TO.C,R7*%
X140521428Y-90400000D02*
X140235714Y-90200000D01*
X140521428Y-90057142D02*
X139921428Y-90057142D01*
X139921428Y-90285714D01*
X139950000Y-90342857D01*
X139978571Y-90371428D01*
X140035714Y-90400000D01*
X140121428Y-90400000D01*
X140178571Y-90371428D01*
X140207142Y-90342857D01*
X140235714Y-90285714D01*
X140235714Y-90057142D01*
X139921428Y-90600000D02*
X139921428Y-91000000D01*
X140521428Y-90742857D01*
%TO.C,C1*%
X140100000Y-92464285D02*
X140128571Y-92492857D01*
X140214285Y-92521428D01*
X140271428Y-92521428D01*
X140357142Y-92492857D01*
X140414285Y-92435714D01*
X140442857Y-92378571D01*
X140471428Y-92264285D01*
X140471428Y-92178571D01*
X140442857Y-92064285D01*
X140414285Y-92007142D01*
X140357142Y-91950000D01*
X140271428Y-91921428D01*
X140214285Y-91921428D01*
X140128571Y-91950000D01*
X140100000Y-91978571D01*
X139528571Y-92521428D02*
X139871428Y-92521428D01*
X139700000Y-92521428D02*
X139700000Y-91921428D01*
X139757142Y-92007142D01*
X139814285Y-92064285D01*
X139871428Y-92092857D01*
%TO.C,R2*%
X134850000Y-89771428D02*
X135050000Y-89485714D01*
X135192857Y-89771428D02*
X135192857Y-89171428D01*
X134964285Y-89171428D01*
X134907142Y-89200000D01*
X134878571Y-89228571D01*
X134850000Y-89285714D01*
X134850000Y-89371428D01*
X134878571Y-89428571D01*
X134907142Y-89457142D01*
X134964285Y-89485714D01*
X135192857Y-89485714D01*
X134621428Y-89228571D02*
X134592857Y-89200000D01*
X134535714Y-89171428D01*
X134392857Y-89171428D01*
X134335714Y-89200000D01*
X134307142Y-89228571D01*
X134278571Y-89285714D01*
X134278571Y-89342857D01*
X134307142Y-89428571D01*
X134650000Y-89771428D01*
X134278571Y-89771428D01*
%TO.C,R1*%
X134850000Y-87271428D02*
X135050000Y-86985714D01*
X135192857Y-87271428D02*
X135192857Y-86671428D01*
X134964285Y-86671428D01*
X134907142Y-86700000D01*
X134878571Y-86728571D01*
X134850000Y-86785714D01*
X134850000Y-86871428D01*
X134878571Y-86928571D01*
X134907142Y-86957142D01*
X134964285Y-86985714D01*
X135192857Y-86985714D01*
X134278571Y-87271428D02*
X134621428Y-87271428D01*
X134450000Y-87271428D02*
X134450000Y-86671428D01*
X134507142Y-86757142D01*
X134564285Y-86814285D01*
X134621428Y-86842857D01*
%TO.C,C2*%
X137850000Y-85464285D02*
X137878571Y-85492857D01*
X137964285Y-85521428D01*
X138021428Y-85521428D01*
X138107142Y-85492857D01*
X138164285Y-85435714D01*
X138192857Y-85378571D01*
X138221428Y-85264285D01*
X138221428Y-85178571D01*
X138192857Y-85064285D01*
X138164285Y-85007142D01*
X138107142Y-84950000D01*
X138021428Y-84921428D01*
X137964285Y-84921428D01*
X137878571Y-84950000D01*
X137850000Y-84978571D01*
X137621428Y-84978571D02*
X137592857Y-84950000D01*
X137535714Y-84921428D01*
X137392857Y-84921428D01*
X137335714Y-84950000D01*
X137307142Y-84978571D01*
X137278571Y-85035714D01*
X137278571Y-85092857D01*
X137307142Y-85178571D01*
X137650000Y-85521428D01*
X137278571Y-85521428D01*
%TO.C,R6*%
X127850000Y-84021428D02*
X128050000Y-83735714D01*
X128192857Y-84021428D02*
X128192857Y-83421428D01*
X127964285Y-83421428D01*
X127907142Y-83450000D01*
X127878571Y-83478571D01*
X127850000Y-83535714D01*
X127850000Y-83621428D01*
X127878571Y-83678571D01*
X127907142Y-83707142D01*
X127964285Y-83735714D01*
X128192857Y-83735714D01*
X127335714Y-83421428D02*
X127450000Y-83421428D01*
X127507142Y-83450000D01*
X127535714Y-83478571D01*
X127592857Y-83564285D01*
X127621428Y-83678571D01*
X127621428Y-83907142D01*
X127592857Y-83964285D01*
X127564285Y-83992857D01*
X127507142Y-84021428D01*
X127392857Y-84021428D01*
X127335714Y-83992857D01*
X127307142Y-83964285D01*
X127278571Y-83907142D01*
X127278571Y-83764285D01*
X127307142Y-83707142D01*
X127335714Y-83678571D01*
X127392857Y-83650000D01*
X127507142Y-83650000D01*
X127564285Y-83678571D01*
X127592857Y-83707142D01*
X127621428Y-83764285D01*
%TO.C,R3*%
X125600000Y-90771428D02*
X125800000Y-90485714D01*
X125942857Y-90771428D02*
X125942857Y-90171428D01*
X125714285Y-90171428D01*
X125657142Y-90200000D01*
X125628571Y-90228571D01*
X125600000Y-90285714D01*
X125600000Y-90371428D01*
X125628571Y-90428571D01*
X125657142Y-90457142D01*
X125714285Y-90485714D01*
X125942857Y-90485714D01*
X125400000Y-90171428D02*
X125028571Y-90171428D01*
X125228571Y-90400000D01*
X125142857Y-90400000D01*
X125085714Y-90428571D01*
X125057142Y-90457142D01*
X125028571Y-90514285D01*
X125028571Y-90657142D01*
X125057142Y-90714285D01*
X125085714Y-90742857D01*
X125142857Y-90771428D01*
X125314285Y-90771428D01*
X125371428Y-90742857D01*
X125400000Y-90714285D01*
%TO.C,VD1*%
X126285714Y-83421428D02*
X126085714Y-84021428D01*
X125885714Y-83421428D01*
X125685714Y-84021428D02*
X125685714Y-83421428D01*
X125542857Y-83421428D01*
X125457142Y-83450000D01*
X125400000Y-83507142D01*
X125371428Y-83564285D01*
X125342857Y-83678571D01*
X125342857Y-83764285D01*
X125371428Y-83878571D01*
X125400000Y-83935714D01*
X125457142Y-83992857D01*
X125542857Y-84021428D01*
X125685714Y-84021428D01*
X124771428Y-84021428D02*
X125114285Y-84021428D01*
X124942857Y-84021428D02*
X124942857Y-83421428D01*
X125000000Y-83507142D01*
X125057142Y-83564285D01*
X125114285Y-83592857D01*
%TO.C,VD2*%
X142535714Y-86921428D02*
X142335714Y-87521428D01*
X142135714Y-86921428D01*
X141935714Y-87521428D02*
X141935714Y-86921428D01*
X141792857Y-86921428D01*
X141707142Y-86950000D01*
X141650000Y-87007142D01*
X141621428Y-87064285D01*
X141592857Y-87178571D01*
X141592857Y-87264285D01*
X141621428Y-87378571D01*
X141650000Y-87435714D01*
X141707142Y-87492857D01*
X141792857Y-87521428D01*
X141935714Y-87521428D01*
X141364285Y-86978571D02*
X141335714Y-86950000D01*
X141278571Y-86921428D01*
X141135714Y-86921428D01*
X141078571Y-86950000D01*
X141050000Y-86978571D01*
X141021428Y-87035714D01*
X141021428Y-87092857D01*
X141050000Y-87178571D01*
X141392857Y-87521428D01*
X141021428Y-87521428D01*
%TO.C,R5*%
X127850000Y-88521428D02*
X128050000Y-88235714D01*
X128192857Y-88521428D02*
X128192857Y-87921428D01*
X127964285Y-87921428D01*
X127907142Y-87950000D01*
X127878571Y-87978571D01*
X127850000Y-88035714D01*
X127850000Y-88121428D01*
X127878571Y-88178571D01*
X127907142Y-88207142D01*
X127964285Y-88235714D01*
X128192857Y-88235714D01*
X127307142Y-87921428D02*
X127592857Y-87921428D01*
X127621428Y-88207142D01*
X127592857Y-88178571D01*
X127535714Y-88150000D01*
X127392857Y-88150000D01*
X127335714Y-88178571D01*
X127307142Y-88207142D01*
X127278571Y-88264285D01*
X127278571Y-88407142D01*
X127307142Y-88464285D01*
X127335714Y-88492857D01*
X127392857Y-88521428D01*
X127535714Y-88521428D01*
X127592857Y-88492857D01*
X127621428Y-88464285D01*
%TO.C,R7*%
X144100000Y-91550000D02*
X143600000Y-91550000D01*
X140900000Y-89950000D02*
X140900000Y-91550000D01*
X144100000Y-89950000D02*
X143600000Y-89950000D01*
X144100000Y-89950000D02*
X144100000Y-91550000D01*
X140900000Y-91550000D02*
X141400000Y-91550000D01*
X140900000Y-89950000D02*
X141400000Y-89950000D01*
%TO.C,C1*%
X138400000Y-94300000D02*
X138400000Y-92700000D01*
X138400000Y-92700000D02*
X138900000Y-92700000D01*
X138400000Y-94300000D02*
X138900000Y-94300000D01*
X140125000Y-93750000D02*
X140125000Y-93250000D01*
X141600000Y-94300000D02*
X141600000Y-92700000D01*
X141600000Y-94300000D02*
X141100000Y-94300000D01*
X139875000Y-93750000D02*
X139875000Y-93250000D01*
X141600000Y-92700000D02*
X141100000Y-92700000D01*
%TO.C,R2*%
X133150000Y-89950000D02*
X133150000Y-91550000D01*
X133150000Y-89950000D02*
X133650000Y-89950000D01*
X136350000Y-89950000D02*
X136350000Y-91550000D01*
X136350000Y-89950000D02*
X135850000Y-89950000D01*
X133150000Y-91550000D02*
X133650000Y-91550000D01*
X136350000Y-91550000D02*
X135850000Y-91550000D01*
%TO.C,R1*%
X136350000Y-89050000D02*
X135850000Y-89050000D01*
X136350000Y-87450000D02*
X136350000Y-89050000D01*
X133150000Y-87450000D02*
X133650000Y-87450000D01*
X133150000Y-89050000D02*
X133650000Y-89050000D01*
X133150000Y-87450000D02*
X133150000Y-89050000D01*
X136350000Y-87450000D02*
X135850000Y-87450000D01*
%TO.C,C2*%
X136400000Y-87300000D02*
X136400000Y-85700000D01*
X139600000Y-85700000D02*
X139100000Y-85700000D01*
X137875000Y-86750000D02*
X137875000Y-86250000D01*
X139600000Y-87300000D02*
X139600000Y-85700000D01*
X139600000Y-87300000D02*
X139100000Y-87300000D01*
X138125000Y-86750000D02*
X138125000Y-86250000D01*
X136400000Y-85700000D02*
X136900000Y-85700000D01*
X136400000Y-87300000D02*
X136900000Y-87300000D01*
%TO.C,R6*%
X126950000Y-84400000D02*
X128550000Y-84400000D01*
X128550000Y-84400000D02*
X128550000Y-84900000D01*
X126950000Y-87600000D02*
X126950000Y-87100000D01*
X128550000Y-87600000D02*
X128550000Y-87100000D01*
X126950000Y-87600000D02*
X128550000Y-87600000D01*
X126950000Y-84400000D02*
X126950000Y-84900000D01*
%TO.C,R3*%
X124700000Y-91150000D02*
X126300000Y-91150000D01*
X124700000Y-91150000D02*
X124700000Y-91650000D01*
X126300000Y-91150000D02*
X126300000Y-91650000D01*
X124700000Y-94350000D02*
X124700000Y-93850000D01*
X126300000Y-94350000D02*
X126300000Y-93850000D01*
X124700000Y-94350000D02*
X126300000Y-94350000D01*
%TO.C,VD1*%
X125000000Y-86500000D02*
X126000000Y-86500000D01*
X125000000Y-87250000D02*
X126000000Y-87250000D01*
X126000000Y-84250000D02*
X126500000Y-84250000D01*
X126000000Y-86500000D02*
X125500000Y-87250000D01*
X124500000Y-89000000D02*
X124500000Y-89500000D01*
X124750000Y-89750000D02*
X124500000Y-89500000D01*
X126000000Y-87250000D02*
X126000000Y-87000000D01*
X126500000Y-89500000D02*
X126250000Y-89750000D01*
X125750000Y-89750000D02*
X126250000Y-89750000D01*
X124750000Y-89750000D02*
X125250000Y-89750000D01*
X125500000Y-87250000D02*
X125000000Y-86500000D01*
X125500000Y-87750000D02*
X125500000Y-86000000D01*
X126500000Y-84750000D02*
X126500000Y-84250000D01*
X125000000Y-84250000D02*
X124500000Y-84250000D01*
X124500000Y-84250000D02*
X124500000Y-84750000D01*
X126500000Y-89500000D02*
X126500000Y-89000000D01*
%TO.C,VD2*%
X138750000Y-87750000D02*
X138750000Y-88250000D01*
X144250000Y-89000000D02*
X144250000Y-89500000D01*
X141250000Y-88000000D02*
X141250000Y-89000000D01*
X143750000Y-89500000D02*
X144250000Y-89500000D01*
X138750000Y-87750000D02*
X139000000Y-87500000D01*
X138750000Y-88750000D02*
X138750000Y-89250000D01*
X140750000Y-88500000D02*
X142500000Y-88500000D01*
X141250000Y-89000000D02*
X141500000Y-89000000D01*
X139000000Y-89500000D02*
X139500000Y-89500000D01*
X139500000Y-87500000D02*
X139000000Y-87500000D01*
X141250000Y-88500000D02*
X142000000Y-88000000D01*
X144250000Y-88000000D02*
X144250000Y-87500000D01*
X142000000Y-89000000D02*
X141250000Y-88500000D01*
X142000000Y-88000000D02*
X142000000Y-89000000D01*
X139000000Y-89500000D02*
X138750000Y-89250000D01*
X144250000Y-87500000D02*
X143750000Y-87500000D01*
%TO.C,R5*%
X126950000Y-88900000D02*
X128550000Y-88900000D01*
X126950000Y-92100000D02*
X128550000Y-92100000D01*
X126950000Y-88900000D02*
X126950000Y-89400000D01*
X128550000Y-92100000D02*
X128550000Y-91600000D01*
X128550000Y-88900000D02*
X128550000Y-89400000D01*
X126950000Y-92100000D02*
X126950000Y-91600000D01*
%TD*%
M02*
