M48
; DRILL file {KiCad (6.0.8)} date Tue Apr 11 18:03:06 2023
; FORMAT={3:3/ absolute / metric / keep zeros}
; #@! TF.CreationDate,2023-04-11T18:03:06+03:00
; #@! TF.GenerationSoftware,Kicad,Pcbnew,(6.0.8)
; #@! TF.FileFunction,Plated,1,2,PTH
FMAT,2
METRIC
; #@! TA.AperFunction,Plated,PTH,ViaDrill
T1C0.400
; #@! TA.AperFunction,Plated,PTH,ComponentDrill
T2C0.800
; #@! TA.AperFunction,Plated,PTH,ComponentDrill
T3C1.200
%
G90
G05
T1
X128750Y-094750
X132000Y-088500
X132000Y-090500
X134500Y-092250
X134500Y-093500
X134500Y-094750
X134500Y-096250
X137750Y-090500
X138000Y-088500
X138750Y-090500
X140500Y-091250
X143250Y-092250
T2
X131000Y-100125
X135000Y-100125
X139000Y-100125
T3
X130250Y-086000
X130250Y-089000
X130250Y-092000
X131500Y-106500
X135000Y-084500
X138500Y-106500
X139500Y-084500
T0
M30
