%TF.GenerationSoftware,KiCad,Pcbnew,(6.0.7)*%
%TF.CreationDate,2023-04-28T12:35:49+03:00*%
%TF.ProjectId,ITR-2,4954522d-322e-46b6-9963-61645f706362,rev?*%
%TF.SameCoordinates,Original*%
%TF.FileFunction,Legend,Top*%
%TF.FilePolarity,Positive*%
%FSLAX46Y46*%
G04 Gerber Fmt 4.6, Leading zero omitted, Abs format (unit mm)*
G04 Created by KiCad (PCBNEW (6.0.7)) date 2023-04-28 12:35:49*
%MOMM*%
%LPD*%
G01*
G04 APERTURE LIST*
%ADD10C,0.150000*%
G04 APERTURE END LIST*
D10*
X131185714Y-105021428D02*
X131185714Y-104421428D01*
X131471428Y-105021428D02*
X131471428Y-104421428D01*
X131814285Y-105021428D01*
X131814285Y-104421428D01*
X132950000Y-84957142D02*
X132921428Y-85014285D01*
X132921428Y-85100000D01*
X132950000Y-85185714D01*
X133007142Y-85242857D01*
X133064285Y-85271428D01*
X133178571Y-85300000D01*
X133264285Y-85300000D01*
X133378571Y-85271428D01*
X133435714Y-85242857D01*
X133492857Y-85185714D01*
X133521428Y-85100000D01*
X133521428Y-85042857D01*
X133492857Y-84957142D01*
X133464285Y-84928571D01*
X133264285Y-84928571D01*
X133264285Y-85042857D01*
X133521428Y-84671428D02*
X132921428Y-84671428D01*
X133521428Y-84328571D01*
X132921428Y-84328571D01*
X133521428Y-84042857D02*
X132921428Y-84042857D01*
X132921428Y-83900000D01*
X132950000Y-83814285D01*
X133007142Y-83757142D01*
X133064285Y-83728571D01*
X133178571Y-83700000D01*
X133264285Y-83700000D01*
X133378571Y-83728571D01*
X133435714Y-83757142D01*
X133492857Y-83814285D01*
X133521428Y-83900000D01*
X133521428Y-84042857D01*
X138042857Y-104450000D02*
X137985714Y-104421428D01*
X137900000Y-104421428D01*
X137814285Y-104450000D01*
X137757142Y-104507142D01*
X137728571Y-104564285D01*
X137700000Y-104678571D01*
X137700000Y-104764285D01*
X137728571Y-104878571D01*
X137757142Y-104935714D01*
X137814285Y-104992857D01*
X137900000Y-105021428D01*
X137957142Y-105021428D01*
X138042857Y-104992857D01*
X138071428Y-104964285D01*
X138071428Y-104764285D01*
X137957142Y-104764285D01*
X138328571Y-105021428D02*
X138328571Y-104421428D01*
X138671428Y-105021428D01*
X138671428Y-104421428D01*
X138957142Y-105021428D02*
X138957142Y-104421428D01*
X139100000Y-104421428D01*
X139185714Y-104450000D01*
X139242857Y-104507142D01*
X139271428Y-104564285D01*
X139300000Y-104678571D01*
X139300000Y-104764285D01*
X139271428Y-104878571D01*
X139242857Y-104935714D01*
X139185714Y-104992857D01*
X139100000Y-105021428D01*
X138957142Y-105021428D01*
X137421428Y-85100000D02*
X137421428Y-84985714D01*
X137450000Y-84928571D01*
X137507142Y-84871428D01*
X137621428Y-84842857D01*
X137821428Y-84842857D01*
X137935714Y-84871428D01*
X137992857Y-84928571D01*
X138021428Y-84985714D01*
X138021428Y-85100000D01*
X137992857Y-85157142D01*
X137935714Y-85214285D01*
X137821428Y-85242857D01*
X137621428Y-85242857D01*
X137507142Y-85214285D01*
X137450000Y-85157142D01*
X137421428Y-85100000D01*
X137421428Y-84585714D02*
X137907142Y-84585714D01*
X137964285Y-84557142D01*
X137992857Y-84528571D01*
X138021428Y-84471428D01*
X138021428Y-84357142D01*
X137992857Y-84300000D01*
X137964285Y-84271428D01*
X137907142Y-84242857D01*
X137421428Y-84242857D01*
X137421428Y-84042857D02*
X137421428Y-83700000D01*
X138021428Y-83871428D02*
X137421428Y-83871428D01*
%TO.C,R7*%
X142150000Y-89771428D02*
X141950000Y-89485714D01*
X141807142Y-89771428D02*
X141807142Y-89171428D01*
X142035714Y-89171428D01*
X142092857Y-89200000D01*
X142121428Y-89228571D01*
X142150000Y-89285714D01*
X142150000Y-89371428D01*
X142121428Y-89428571D01*
X142092857Y-89457142D01*
X142035714Y-89485714D01*
X141807142Y-89485714D01*
X142350000Y-89171428D02*
X142750000Y-89171428D01*
X142492857Y-89771428D01*
%TO.C,VT1*%
X141035714Y-84671428D02*
X141235714Y-85271428D01*
X141435714Y-84671428D01*
X141550000Y-84671428D02*
X141892857Y-84671428D01*
X141721428Y-85271428D02*
X141721428Y-84671428D01*
X142407142Y-85271428D02*
X142064285Y-85271428D01*
X142235714Y-85271428D02*
X142235714Y-84671428D01*
X142178571Y-84757142D01*
X142121428Y-84814285D01*
X142064285Y-84842857D01*
%TO.C,HL2*%
X133021428Y-91200000D02*
X132421428Y-91200000D01*
X132707142Y-91200000D02*
X132707142Y-90857142D01*
X133021428Y-90857142D02*
X132421428Y-90857142D01*
X133021428Y-90285714D02*
X133021428Y-90571428D01*
X132421428Y-90571428D01*
X132478571Y-90114285D02*
X132450000Y-90085714D01*
X132421428Y-90028571D01*
X132421428Y-89885714D01*
X132450000Y-89828571D01*
X132478571Y-89800000D01*
X132535714Y-89771428D01*
X132592857Y-89771428D01*
X132678571Y-89800000D01*
X133021428Y-90142857D01*
X133021428Y-89771428D01*
%TO.C,DA1*%
X138300000Y-92021428D02*
X138300000Y-91421428D01*
X138442857Y-91421428D01*
X138528571Y-91450000D01*
X138585714Y-91507142D01*
X138614285Y-91564285D01*
X138642857Y-91678571D01*
X138642857Y-91764285D01*
X138614285Y-91878571D01*
X138585714Y-91935714D01*
X138528571Y-91992857D01*
X138442857Y-92021428D01*
X138300000Y-92021428D01*
X138871428Y-91850000D02*
X139157142Y-91850000D01*
X138814285Y-92021428D02*
X139014285Y-91421428D01*
X139214285Y-92021428D01*
X139728571Y-92021428D02*
X139385714Y-92021428D01*
X139557142Y-92021428D02*
X139557142Y-91421428D01*
X139500000Y-91507142D01*
X139442857Y-91564285D01*
X139385714Y-91592857D01*
%TO.C,SB1*%
X129492857Y-84242857D02*
X129578571Y-84271428D01*
X129721428Y-84271428D01*
X129778571Y-84242857D01*
X129807142Y-84214285D01*
X129835714Y-84157142D01*
X129835714Y-84100000D01*
X129807142Y-84042857D01*
X129778571Y-84014285D01*
X129721428Y-83985714D01*
X129607142Y-83957142D01*
X129550000Y-83928571D01*
X129521428Y-83900000D01*
X129492857Y-83842857D01*
X129492857Y-83785714D01*
X129521428Y-83728571D01*
X129550000Y-83700000D01*
X129607142Y-83671428D01*
X129750000Y-83671428D01*
X129835714Y-83700000D01*
X130292857Y-83957142D02*
X130378571Y-83985714D01*
X130407142Y-84014285D01*
X130435714Y-84071428D01*
X130435714Y-84157142D01*
X130407142Y-84214285D01*
X130378571Y-84242857D01*
X130321428Y-84271428D01*
X130092857Y-84271428D01*
X130092857Y-83671428D01*
X130292857Y-83671428D01*
X130350000Y-83700000D01*
X130378571Y-83728571D01*
X130407142Y-83785714D01*
X130407142Y-83842857D01*
X130378571Y-83900000D01*
X130350000Y-83928571D01*
X130292857Y-83957142D01*
X130092857Y-83957142D01*
X131007142Y-84271428D02*
X130664285Y-84271428D01*
X130835714Y-84271428D02*
X130835714Y-83671428D01*
X130778571Y-83757142D01*
X130721428Y-83814285D01*
X130664285Y-83842857D01*
%TO.C,HL1*%
X133021428Y-89200000D02*
X132421428Y-89200000D01*
X132707142Y-89200000D02*
X132707142Y-88857142D01*
X133021428Y-88857142D02*
X132421428Y-88857142D01*
X133021428Y-88285714D02*
X133021428Y-88571428D01*
X132421428Y-88571428D01*
X133021428Y-87771428D02*
X133021428Y-88114285D01*
X133021428Y-87942857D02*
X132421428Y-87942857D01*
X132507142Y-88000000D01*
X132564285Y-88057142D01*
X132592857Y-88114285D01*
%TO.C,R4*%
X136900000Y-103771428D02*
X136700000Y-103485714D01*
X136557142Y-103771428D02*
X136557142Y-103171428D01*
X136785714Y-103171428D01*
X136842857Y-103200000D01*
X136871428Y-103228571D01*
X136900000Y-103285714D01*
X136900000Y-103371428D01*
X136871428Y-103428571D01*
X136842857Y-103457142D01*
X136785714Y-103485714D01*
X136557142Y-103485714D01*
X137414285Y-103371428D02*
X137414285Y-103771428D01*
X137271428Y-103142857D02*
X137128571Y-103571428D01*
X137500000Y-103571428D01*
%TO.C,R7*%
X140650000Y-91550000D02*
X141150000Y-91550000D01*
X143850000Y-89950000D02*
X143850000Y-91550000D01*
X140650000Y-89950000D02*
X141150000Y-89950000D01*
X140650000Y-89950000D02*
X140650000Y-91550000D01*
X143850000Y-91550000D02*
X143350000Y-91550000D01*
X143850000Y-89950000D02*
X143350000Y-89950000D01*
%TO.C,VT1*%
X143830000Y-86490000D02*
X143830000Y-87950000D01*
X143830000Y-86490000D02*
X142900000Y-86490000D01*
X140670000Y-86490000D02*
X141600000Y-86490000D01*
X140670000Y-86490000D02*
X140670000Y-87950000D01*
%TO.C,HL2*%
X136600000Y-91050000D02*
X136350000Y-91300000D01*
X136600000Y-89950000D02*
X136600000Y-91050000D01*
X133400000Y-89700000D02*
X133900000Y-89700000D01*
X133400000Y-91300000D02*
X133900000Y-91300000D01*
X133400000Y-89700000D02*
X133400000Y-91300000D01*
X136350000Y-91300000D02*
X136100000Y-91300000D01*
X136600000Y-89950000D02*
X136350000Y-89700000D01*
X136350000Y-89700000D02*
X136100000Y-89700000D01*
%TO.C,DA1*%
X141126200Y-97450000D02*
X140126200Y-97450000D01*
X135018200Y-93111000D02*
X135018200Y-92611000D01*
X141126200Y-92050000D02*
X140126200Y-92050000D01*
X141126200Y-92250000D02*
X141126200Y-92050000D01*
X136926200Y-97250000D02*
X136926200Y-97450000D01*
X135268200Y-92861000D02*
X135018200Y-93111000D01*
X135018200Y-92611000D02*
X135268200Y-92861000D01*
X136926200Y-92250000D02*
X136926200Y-92050000D01*
X136926200Y-97450000D02*
X137926200Y-97450000D01*
X141126200Y-97250000D02*
X141126200Y-97450000D01*
X136926200Y-92050000D02*
X137926200Y-92050000D01*
%TO.C,HL1*%
X136600000Y-87950000D02*
X136350000Y-87700000D01*
X136350000Y-89300000D02*
X136100000Y-89300000D01*
X136600000Y-89050000D02*
X136350000Y-89300000D01*
X136600000Y-87950000D02*
X136600000Y-89050000D01*
X136350000Y-87700000D02*
X136100000Y-87700000D01*
X133400000Y-89300000D02*
X133900000Y-89300000D01*
X133400000Y-87700000D02*
X133400000Y-89300000D01*
X133400000Y-87700000D02*
X133900000Y-87700000D01*
%TD*%
M02*
